<?xml version="1.0" encoding="UTF-8" standalone="no"?>
<!-- Created with Inkscape (http://www.inkscape.org/) -->

<svg
   width="64"
   height="64"
   viewBox="0 0 16.933334 16.933333"
   version="1.1"
   id="svg7448"
   inkscape:version="1.1 (1:1.1+202105261517+ce6663b3b7)"
   sodipodi:docname="llx-guest-icon.svg"
   inkscape:export-filename="/home/lliurex/Desarrollo/llx-alumnat-wifi/llx-alumnat-wifi.install/usr/share/llx-alumnat-wifi/rsrc/face.icon.png"
   inkscape:export-xdpi="96"
   inkscape:export-ydpi="96"
   xmlns:inkscape="http://www.inkscape.org/namespaces/inkscape"
   xmlns:sodipodi="http://sodipodi.sourceforge.net/DTD/sodipodi-0.dtd"
   xmlns:xlink="http://www.w3.org/1999/xlink"
   xmlns="http://www.w3.org/2000/svg"
   xmlns:svg="http://www.w3.org/2000/svg"
   xmlns:rdf="http://www.w3.org/1999/02/22-rdf-syntax-ns#"
   xmlns:cc="http://creativecommons.org/ns#"
   xmlns:dc="http://purl.org/dc/elements/1.1/">
  <defs
     id="defs7442">
    <linearGradient
       inkscape:collect="always"
       id="linearGradient1349">
      <stop
         style="stop-color:#bfbfbf;stop-opacity:1"
         offset="0"
         id="stop1345" />
      <stop
         style="stop-color:#808080;stop-opacity:1"
         offset="1"
         id="stop1347" />
    </linearGradient>
    <linearGradient
       gradientTransform="matrix(0.19734331,0,0,-0.19823545,166.77022,195.82034)"
       y2="666.56842"
       x2="-460.2334"
       y1="370.53909"
       x1="-460.2334"
       gradientUnits="userSpaceOnUse"
       id="rect3438-6-0-6-7-2_60_-80">
      <stop
         id="stop29185"
         style="stop-color:#000000"
         offset="0" />
      <stop
         id="stop29187"
         style="stop-color:#000000;stop-opacity:0.5882"
         offset="1" />
    </linearGradient>
    <linearGradient
       gradientTransform="matrix(0.19561848,0,0,-0.19662959,164.39189,195.04925)"
       y2="668.2168"
       x2="-452.13281"
       y1="371.53421"
       x1="-452.13281"
       gradientUnits="userSpaceOnUse"
       id="rect3438-6-0-1-1_60_-262">
      <stop
         id="stop29191"
         style="stop-color:#000000"
         offset="0" />
      <stop
         id="stop29193"
         style="stop-color:#000000;stop-opacity:0.5882"
         offset="1" />
    </linearGradient>
    <linearGradient
       gradientTransform="matrix(0.19817598,0,0,-0.19817598,-75.834945,48.799836)"
       y2="-366.80859"
       x2="765.62701"
       y1="-74.489304"
       x1="765.62701"
       gradientUnits="userSpaceOnUse"
       id="XMLID_140_-06">
      <stop
         id="stop29198"
         style="stop-color:#2f343f;stop-opacity:1"
         offset="0" />
      <stop
         id="stop29200"
         style="stop-color:#2b303a;stop-opacity:1"
         offset="0.3475" />
      <stop
         id="stop29202"
         style="stop-color:#232730;stop-opacity:1"
         offset="0.6063" />
      <stop
         id="stop29204"
         style="stop-color:#1b1e25;stop-opacity:1"
         offset="0.8413" />
      <stop
         id="stop29206"
         style="stop-color:#1b1e25;stop-opacity:1"
         offset="1" />
    </linearGradient>
    <linearGradient
       id="linearGradient7404"
       gradientUnits="userSpaceOnUse"
       x1="-460.2334"
       y1="370.53909"
       x2="-460.2334"
       y2="666.56842"
       gradientTransform="matrix(0.9954,0,0,-0.9999,607.6064,666.5718)">
      <stop
         offset="0"
         style="stop-color:#000000"
         id="stop7400" />
      <stop
         offset="1"
         style="stop-color:#000000;stop-opacity:0.5882"
         id="stop7402" />
    </linearGradient>
    <linearGradient
       id="linearGradient7411"
       gradientUnits="userSpaceOnUse"
       x1="-452.13281"
       y1="371.53421"
       x2="-452.13281"
       y2="668.2168"
       gradientTransform="matrix(0.9867,0,0,-0.9918,595.6101,662.6824)">
      <stop
         offset="0"
         style="stop-color:#000000"
         id="stop7407" />
      <stop
         offset="1"
         style="stop-color:#000000;stop-opacity:0.5882"
         id="stop7409" />
    </linearGradient>
    <linearGradient
       gradientTransform="matrix(0.9996,0,0,-0.9996,-616.0945,-74.9999)"
       y2="-366.80859"
       x2="765.62701"
       y1="-74.489304"
       x1="765.62701"
       gradientUnits="userSpaceOnUse"
       id="linearGradient7424">
      <stop
         id="stop7414"
         style="stop-color:#006cf9;stop-opacity:1"
         offset="0" />
      <stop
         id="stop7416"
         style="stop-color:#0053c2;stop-opacity:1"
         offset="0.3475" />
      <stop
         id="stop7418"
         style="stop-color:#0047a6;stop-opacity:1"
         offset="0.6063" />
      <stop
         id="stop7420"
         style="stop-color:#003884;stop-opacity:1"
         offset="0.8413" />
      <stop
         id="stop7422"
         style="stop-color:#003580;stop-opacity:1"
         offset="1" />
    </linearGradient>
    <linearGradient
       inkscape:collect="always"
       xlink:href="#linearGradient1349"
       id="linearGradient1351"
       x1="-10.455528"
       y1="296.71729"
       x2="-4.1280456"
       y2="296.71729"
       gradientUnits="userSpaceOnUse" />
  </defs>
  <sodipodi:namedview
     id="base"
     pagecolor="#ffffff"
     bordercolor="#666666"
     borderopacity="1.0"
     inkscape:pageopacity="0.0"
     inkscape:pageshadow="2"
     inkscape:zoom="5.8070912"
     inkscape:cx="56.224362"
     inkscape:cy="27.552521"
     inkscape:document-units="mm"
     inkscape:current-layer="g1102"
     showgrid="false"
     fit-margin-top="0"
     fit-margin-left="0"
     fit-margin-right="0"
     fit-margin-bottom="0"
     inkscape:window-width="1920"
     inkscape:window-height="879"
     inkscape:window-x="0"
     inkscape:window-y="0"
     inkscape:window-maximized="1"
     units="px"
     borderlayer="true"
     inkscape:pagecheckerboard="0" />
  <metadata
     id="metadata7445">
    <rdf:RDF>
      <cc:Work
         rdf:about="">
        <dc:format>image/svg+xml</dc:format>
        <dc:type
           rdf:resource="http://purl.org/dc/dcmitype/StillImage" />
      </cc:Work>
    </rdf:RDF>
  </metadata>
  <g
     inkscape:label="Capa 1"
     inkscape:groupmode="layer"
     id="layer1"
     transform="translate(-42.060823,-59.097487)">
    <path
       style="fill:#000000;fill-opacity:0;stroke-width:0.198255"
       d="m 60.297341,63.561904 h 31.193684 c 7.382828,0 13.368555,5.985327 13.368555,13.368552 v 31.193284 c 0,7.38323 -5.985529,13.36875 -13.368555,13.36875 H 60.297341 c -7.383027,0 -13.368552,-5.98532 -13.368552,-13.36875 V 76.930456 c 0,-7.383225 5.985327,-13.368552 13.368552,-13.368552 z"
       id="XMLID_3584_"
       inkscape:connector-curvature="0" />
    <g
       id="g861"
       transform="matrix(6.0387788,0,0,6.0387788,120.57022,-1669.9855)"
       style="fill:url(#linearGradient1351);fill-opacity:1;stroke:none" />
    <g
       id="g1144"
       transform="matrix(0.3852799,0,0,0.3852799,21.274155,37.173059)">
      <g
         id="g1355"
         transform="translate(-0.74374316,3.2520494)">
        <g
           id="g1102"
           transform="matrix(0.77419404,0,0,0.83871751,17.312821,12.197555)"
           inkscape:export-filename="/home/lliurex/Desarrollo/llx-alumnat-wifi/llx-alumnat-wifi.install/usr/share/llx-alumnat-wifi/rsrc/face.icon.png"
           inkscape:export-xdpi="96"
           inkscape:export-ydpi="96">
          <path
             sodipodi:nodetypes="ccccc"
             inkscape:connector-curvature="0"
             id="path883-5"
             d="m -7.392545,287.15893 c -1.3515146,6e-5 -2.4469876,1.09588 -2.4466004,2.44744 6.51e-5,1.35117 1.0954077,2.44652 2.4466004,2.44653 1.3511905,-1e-5 2.4465328,-1.09536 2.4465959,-2.44653 3.916e-4,-1.35156 -1.0950835,-2.44738 -2.4465959,-2.44744 z"
             style="fill:#ffba07;fill-opacity:1;stroke:none;stroke-width:0.223674;stroke-miterlimit:4;stroke-dasharray:none;stroke-opacity:0.25098"
             transform="matrix(6.0387788,0,0,6.0387788,120.57022,-1669.9855)" />
          <g
             transform="matrix(0.00570024,0,0,-0.00570024,40.367389,107.44149)"
             fill="#000000"
             stroke="none"
             id="g1168">
            <path
               d="m 6020,8630 c -429,-103 -1815,-430 -2865,-676 -391,-92 -453,-109 -472,-131 -28,-29 -29,-54 -5,-81 9,-10 350,-162 757,-337 407,-175 752,-324 766,-331 l 27,-13 -68,-133 c -106,-207 -190,-459 -206,-615 -7,-70 10,-113 46,-113 11,0 73,15 138,34 407,119 807,144 1168,71 66,-13 214,-53 330,-89 237,-73 358,-100 541,-121 234,-27 326,-21 753,52 l 275,48 h 250 c 267,0 362,-10 594,-61 134,-30 357,-100 474,-150 111,-46 157,-44 171,10 13,52 -74,411 -149,609 -19,52 -35,98 -35,101 0,20 41,-2 98,-55 93,-84 238,-179 391,-255 72,-36 134,-70 138,-77 12,-19 6,-100 -10,-139 -25,-59 -100,-131 -217,-208 -117,-76 -143,-105 -214,-248 -57,-114 -109,-194 -244,-376 -160,-217 -226,-321 -322,-515 -85,-169 -152,-334 -208,-505 -44,-135 -41,-143 70,-200 100,-51 183,-59 287,-27 80,24 91,37 92,108 1,26 4,59 8,73 6,19 9,9 13,-40 5,-51 11,-69 29,-83 24,-19 73,-17 93,3 6,6 11,92 12,203 1,105 6,206 11,222 9,30 10,29 23,-25 31,-130 118,-315 156,-332 30,-14 76,9 88,44 8,22 4,40 -21,95 -148,325 -116,556 146,1053 33,62 42,94 55,187 9,61 16,124 16,140 1,23 11,34 57,63 74,46 192,161 236,231 108,170 98,340 -26,430 -23,17 -103,62 -178,100 -122,62 -315,186 -306,196 3,2 298,73 658,159 398,94 660,161 671,171 26,24 24,79 -4,97 -19,12 -1643,701 -3280,1392 -299,127 -320,134 -380,133 -41,-1 -188,-31 -428,-89 z"
               id="path1166" />
          </g>
        </g>
      </g>
    </g>
  </g>
</svg>
